<svg width="500" height="500" viewBox="0 0 500 500" fill="none" xmlns="http://www.w3.org/2000/svg">
<path d="M500 250C500 388.071 388.071 500 250 500C111.929 500 0 388.071 0 250C0 111.929 111.929 0 250 0C388.071 0 500 111.929 500 250Z" fill="#030520"/>
<path d="M110 98H140C140 98 250 184.8 250 199.65C250 184.8 360 98 360 98H390V199.65C390 212.633 391.821 221.896 397.801 227.438C403.693 232.979 414.092 235.75 429 235.75V264.25C414.092 264.25 403.693 267.021 397.801 272.562C391.821 278.104 388.83 287.367 388.83 300.35V338.35C388.83 349.275 387.67 358.735 385.349 366.731C382.939 374.727 379.055 381.337 373.699 386.562C368.343 391.788 361.202 395.667 352.275 398.2C343.349 400.733 332.324 402 319.202 402V378.725C329.557 378.725 337.725 377.26 343.706 374.331C349.597 371.481 353.793 367.088 356.292 361.15C358.703 355.213 359.908 347.612 359.908 338.35V290.85C359.908 284.675 360.845 279.054 362.72 273.987C364.505 268.921 367.852 264.567 372.762 260.925C377.672 257.283 384.679 254.473 393.784 252.494C394.944 252.239 396.15 252.001 397.4 251.779C397.971 251.678 398.552 251.579 399.143 251.485C403.283 250.822 407.887 250.327 412.953 250C407.164 249.627 401.979 249.034 397.4 248.221C396.15 247.999 394.944 247.761 393.784 247.506C384.679 245.527 377.672 242.717 372.762 239.075C367.852 235.433 364.505 231.079 362.72 226.013C361.149 221.767 361.705 174.186 361.927 155.25L361.927 155.245L361.928 155.179C361.97 151.557 362 148.994 362 148C276 214.45 267 227 267 265H233C233 227 224 214.45 138 148C138 148.999 138.03 151.586 138.073 155.242L138.073 155.245L138.073 155.25C138.295 174.187 138.851 221.767 137.28 226.013C135.495 231.079 132.148 235.433 127.238 239.075C122.328 242.717 115.321 245.527 106.216 247.506C105.056 247.761 103.851 247.999 102.6 248.221C98.0206 249.034 92.836 249.627 87.0466 250C92.1133 250.327 96.7168 250.822 100.857 251.485C101.448 251.579 102.029 251.678 102.6 251.779C103.851 252.001 105.056 252.239 106.216 252.494C115.321 254.473 122.328 257.283 127.238 260.925C132.148 264.567 135.495 268.921 137.28 273.987C139.155 279.054 140.092 284.675 140.092 290.85V338.35C140.092 347.612 141.297 355.213 143.708 361.15C146.207 367.088 150.403 371.481 156.294 374.331C162.275 377.26 170.443 378.725 180.798 378.725V402C167.676 402 156.651 400.733 147.725 398.2C138.798 395.667 131.657 391.788 126.301 386.562C120.945 381.337 117.062 374.727 114.651 366.731C112.33 358.735 111.17 349.275 111.17 338.35V300.35C111.17 287.367 108.179 278.104 102.199 272.562C96.307 267.021 85.9075 264.25 71 264.25V235.75C85.9075 235.75 96.307 232.979 102.199 227.438C108.179 221.896 110 212.633 110 199.65V98Z" fill="#02A6F2"/>
</svg>
